<svg width="330" height="105" viewBox="0 0 330 105" fill="none" xmlns="http://www.w3.org/2000/svg">
<path d="M152.888 97.84C149.448 95.6 147.128 93.64 145.928 91.96C144.728 90.36 145.208 88.88 147.368 87.52C147.848 87.2 148.608 87.48 149.648 88.36C150.768 89.16 151.688 89.92 152.408 90.64C154.008 92.08 155.968 92.96 158.288 93.28C160.688 93.68 163.368 93.48 166.328 92.68C169.688 91.64 172.608 90.2 175.088 88.36C177.648 86.44 180.048 84.12 182.288 81.4C183.968 79.24 185.128 76.92 185.768 74.44C186.408 71.88 186.648 69.52 186.488 67.36C186.408 65.2 185.968 63.68 185.168 62.8C183.168 60 180.368 58.08 176.768 57.04C173.248 55.92 169.088 56 164.288 57.28C163.728 57.36 162.888 57.52 161.768 57.76C160.648 58 159.648 58.24 158.768 58.48C157.888 58.64 157.408 58.72 157.328 58.72C156.768 58.88 156.328 59.08 156.008 59.32C155.688 59.48 155.288 60.08 154.808 61.12C154.408 62.08 153.768 63.84 152.888 66.4C152.008 68.88 150.688 72.56 148.928 77.44C147.248 82.32 145.888 85.8 144.848 87.88C143.888 89.88 143.008 90.8 142.208 90.64C141.488 90.4 140.568 89.52 139.448 88C138.808 86.88 138.408 85.8 138.248 84.76C138.088 83.64 138.408 82.36 139.208 80.92C139.608 80.2 139.928 79.56 140.168 79C140.408 78.36 140.728 77.28 141.128 75.76C141.528 74.56 142.288 72.48 143.408 69.52C144.608 66.48 146.008 62.96 147.608 58.96C149.208 54.88 150.888 50.68 152.648 46.36C154.408 42.04 156.088 37.96 157.688 34.12C159.368 30.28 160.768 27.04 161.888 24.4C163.008 21.92 163.688 20.12 163.928 19C164.168 17.88 164.088 17.28 163.688 17.2C163.688 16.8 163.568 16.44 163.328 16.12C163.088 15.72 163.008 15.36 163.088 15.04C163.088 14.72 163.608 14.28 164.648 13.72C165.768 13.16 166.968 12.64 168.248 12.16C169.608 11.68 170.648 11.52 171.368 11.68C171.768 11.68 172.248 11.68 172.808 11.68C173.368 11.6 173.648 11.4 173.648 11.08C173.888 11.08 174.648 11 175.928 10.84C177.208 10.68 178.608 10.68 180.128 10.84C185.488 11.32 189.648 12.88 192.608 15.52C195.568 18.08 197.008 21.6 196.928 26.08C196.848 27.44 196.128 29.28 194.768 31.6C193.488 33.92 191.888 36.24 189.968 38.56C188.128 40.88 186.328 42.84 184.568 44.44C183.528 45.32 182.408 46.24 181.208 47.2C180.088 48.08 179.088 48.84 178.208 49.48C177.408 50.04 177.008 50.32 177.008 50.32C177.008 50.32 177.328 50.44 177.968 50.68C178.608 50.92 179.288 51.16 180.008 51.4C183.688 52.76 186.728 54.48 189.128 56.56C191.528 58.64 193.168 61.52 194.048 65.2C194.368 66.4 194.368 67.88 194.048 69.64C193.808 71.4 193.448 73.16 192.968 74.92C192.488 76.6 191.968 78.04 191.408 79.24C190.848 79.8 190.408 80.4 190.088 81.04C189.768 81.6 189.608 81.88 189.608 81.88C189.608 82.04 189.288 82.68 188.648 83.8C188.008 84.84 187.248 86 186.368 87.28C185.488 88.56 184.648 89.68 183.848 90.64C183.048 91.28 182.088 92.04 180.968 92.92C179.928 93.8 178.728 94.64 177.368 95.44C176.088 96.24 174.688 96.92 173.168 97.48C170.928 98.44 168.488 99.08 165.848 99.4C163.288 99.8 160.848 99.84 158.528 99.52C156.208 99.28 154.328 98.72 152.888 97.84ZM158.768 51.64C158.768 51.64 159.488 51.52 160.928 51.28C162.448 50.96 164.088 50.64 165.848 50.32C167.608 49.92 168.888 49.56 169.688 49.24C170.088 49 170.648 48.68 171.368 48.28C172.168 47.88 172.968 47.28 173.768 46.48C174.888 45.44 176.288 43.96 177.968 42.04C179.728 40.04 181.448 37.96 183.128 35.8C184.808 33.56 186.088 31.56 186.968 29.8C188.808 26.92 189.808 24.8 189.968 23.44C190.128 22 189.688 20.76 188.648 19.72C187.928 18.84 186.688 18.28 184.928 18.04C183.248 17.72 181.448 17.64 179.528 17.8C177.608 17.88 175.968 18.12 174.608 18.52C173.568 18.84 172.768 19.24 172.208 19.72C171.648 20.12 171.368 20.76 171.368 21.64C171.368 22.36 171.128 23.08 170.648 23.8C170.248 24.44 169.848 24.96 169.448 25.36C169.368 25.92 169.168 26.44 168.848 26.92C168.528 27.32 168.368 27.52 168.368 27.52C168.368 27.84 167.808 29.16 166.688 31.48C165.568 33.8 164.448 36.48 163.328 39.52C161.888 42.96 160.768 45.76 159.968 47.92C159.168 50 158.768 51.24 158.768 51.64Z" fill="#8AB5F6"/>
<path d="M205.004 91C203.484 91.4 202.244 91.08 201.284 90.04C200.404 89 199.884 87.4 199.724 85.24C199.564 83.08 199.804 80.52 200.444 77.56C200.844 76.6 201.164 75.68 201.404 74.8C201.644 73.84 201.764 73.08 201.764 72.52C201.924 71.72 202.244 70.56 202.724 69.04C203.204 67.44 203.724 65.8 204.284 64.12C204.844 62.44 205.364 60.96 205.844 59.68C206.404 58.32 206.764 57.48 206.924 57.16C207.244 57.16 207.524 56.88 207.764 56.32C208.004 55.76 208.124 55.2 208.124 54.64C208.124 54 208.244 53.28 208.484 52.48C208.804 51.68 209.124 51.12 209.444 50.8C209.444 50.4 209.524 49.96 209.684 49.48C209.924 48.92 210.044 48.48 210.044 48.16C210.044 47.84 210.124 47.52 210.284 47.2C210.524 46.88 210.644 46.56 210.644 46.24C211.204 45.2 211.924 43.56 212.804 41.32C213.764 39 214.764 36.44 215.804 33.64C216.924 30.84 217.964 28.08 218.924 25.36C219.884 22.64 220.644 20.36 221.204 18.52C221.844 16.6 222.164 15.44 222.164 15.04C222.164 14.4 222.324 13.92 222.644 13.6C222.964 13.28 223.444 13.12 224.084 13.12C224.324 12.88 224.604 12.72 224.924 12.64C225.324 12.56 225.684 12.52 226.004 12.52C226.004 12.52 226.164 12.68 226.484 13C226.804 13.32 227.284 13.8 227.924 14.44C228.564 15 228.924 15.64 229.004 16.36C229.164 17.08 229.244 17.92 229.244 18.88C229.244 19.92 229.124 20.84 228.884 21.64C228.644 22.44 228.164 23.6 227.444 25.12C226.724 26.64 225.604 29 224.084 32.2C223.444 33.8 222.764 35.32 222.044 36.76C221.324 38.12 220.964 38.96 220.964 39.28C220.964 39.6 220.804 40.08 220.484 40.72C220.244 41.36 219.964 42.16 219.644 43.12C219.324 43.76 218.884 44.72 218.324 46C217.764 47.2 217.164 48.52 216.524 49.96C215.964 51.32 215.484 52.52 215.084 53.56C214.684 54.52 214.484 55.08 214.484 55.24C214.484 55.56 214.444 55.88 214.364 56.2C214.364 56.52 214.204 56.84 213.884 57.16C213.564 57.16 213.364 57.4 213.284 57.88C213.284 58.28 213.284 58.48 213.284 58.48C213.284 59.28 212.644 61.4 211.364 64.84C210.084 69.24 208.884 73.28 207.764 76.96C206.724 80.64 206.204 83.6 206.204 85.84C206.204 87.76 206.164 89.04 206.084 89.68C206.004 90.24 205.644 90.68 205.004 91Z" fill="#8AB5F6"/>
<path d="M220.597 87.16C219.957 86.52 219.477 85.72 219.157 84.76C218.917 83.8 218.837 82.84 218.917 81.88C218.997 80.92 219.197 80.12 219.517 79.48C219.517 78.84 219.597 78.36 219.757 78.04C219.997 77.64 220.077 77.28 219.997 76.96C219.917 76.64 219.997 76.08 220.237 75.28C220.477 74.48 220.717 73.72 220.957 73C221.517 71.72 222.117 70.2 222.757 68.44C223.397 66.6 223.997 64.8 224.557 63.04C225.117 61.28 225.597 59.76 225.997 58.48C226.397 57.2 226.637 56.4 226.717 56.08C226.717 55.12 227.357 54.6 228.637 54.52C229.597 54.2 230.317 54.2 230.797 54.52C231.277 54.76 231.917 55.52 232.717 56.8C233.357 57.44 233.597 58.4 233.437 59.68C233.277 60.96 232.757 62.56 231.877 64.48C231.557 65.12 231.157 66.04 230.677 67.24C230.277 68.44 229.997 69.52 229.837 70.48C229.517 71.12 229.117 72.04 228.637 73.24C228.237 74.36 227.877 75.44 227.557 76.48C227.397 76.88 227.237 77.48 227.077 78.28C226.917 79 226.717 79.8 226.477 80.68C226.237 81.48 225.917 82.2 225.517 82.84C224.797 86.12 224.117 88.04 223.477 88.6C222.917 89.16 221.957 88.68 220.597 87.16ZM232.237 38.44C231.837 38.04 231.477 37.48 231.157 36.76C230.837 35.96 230.637 35.24 230.557 34.6C230.477 33.88 230.557 33.52 230.797 33.52C231.437 33.44 232.197 32.76 233.077 31.48C233.957 30.2 234.317 29.08 234.157 28.12C234.157 27.8 234.277 27.52 234.517 27.28C234.757 26.96 235.037 26.76 235.357 26.68C236.317 26.04 237.237 25.96 238.117 26.44C239.077 26.84 239.957 27.68 240.757 28.96C241.477 30.48 241.677 31.76 241.357 32.8C241.037 33.76 240.157 35.12 238.717 36.88C237.517 38.48 236.397 39.36 235.357 39.52C234.397 39.68 233.357 39.32 232.237 38.44Z" fill="#8AB5F6"/>
<path d="M276.46 89.56C275.66 89.56 274.82 89.12 273.94 88.24C273.14 87.36 272.42 86.28 271.78 85C271.22 83.64 270.94 82.36 270.94 81.16C270.94 79.96 271.22 77.72 271.78 74.44C272.42 71.16 273.18 67.84 274.06 64.48C274.7 62.4 274.9 61.2 274.66 60.88C274.42 60.56 273.34 61 271.42 62.2C270.3 62.76 269.3 63.36 268.42 64C267.54 64.56 266.78 65.2 266.14 65.92C265.74 66.24 265.14 66.76 264.34 67.48C263.54 68.2 262.7 68.88 261.82 69.52C260.78 70.32 259.46 71.44 257.86 72.88C256.26 74.32 254.66 75.76 253.06 77.2C251.54 78.64 250.38 79.76 249.58 80.56C249.42 80.88 249.18 81.16 248.86 81.4C248.54 81.64 248.18 81.8 247.78 81.88C247.38 81.88 246.94 81.8 246.46 81.64C245.58 81.4 244.74 80.88 243.94 80.08C243.22 79.28 242.86 78.36 242.86 77.32C242.86 76.52 243.18 75.16 243.82 73.24C244.46 71.24 245.3 68.84 246.34 66.04C247.46 63.24 248.74 60.28 250.18 57.16C250.42 56.76 250.62 56.28 250.78 55.72C250.94 55.08 251.06 54.4 251.14 53.68C251.3 52.96 251.38 52.28 251.38 51.64C251.38 51.24 251.42 50.84 251.5 50.44C251.66 49.96 251.82 49.52 251.98 49.12C252.22 48.64 252.42 48.32 252.58 48.16C252.9 47.52 253.46 47.36 254.26 47.68C255.06 47.92 255.74 48.48 256.3 49.36C257.5 50.48 258.1 51.88 258.1 53.56C258.18 55.24 257.78 57.32 256.9 59.8C256.58 60.36 256.3 60.92 256.06 61.48C255.9 61.96 255.74 62.4 255.58 62.8C255.42 63.12 255.3 63.4 255.22 63.64C255.14 63.8 255.1 63.88 255.1 63.88C255.42 63.88 256.14 63.52 257.26 62.8C258.38 62.08 259.7 61.28 261.22 60.4C262.42 59.52 263.46 58.72 264.34 58C265.3 57.2 266.1 56.6 266.74 56.2C267.38 55.72 267.78 55.48 267.94 55.48C268.26 55.48 268.66 55.36 269.14 55.12C269.62 54.88 270.02 54.6 270.34 54.28C270.66 53.96 270.9 53.8 271.06 53.8C271.3 53.72 271.42 53.68 271.42 53.68C271.42 53.68 271.58 53.68 271.9 53.68C272.22 53.6 272.54 53.4 272.86 53.08C273.5 52.6 274.34 52.48 275.38 52.72C276.42 52.88 277.38 53.28 278.26 53.92C279.14 54.56 279.58 55.28 279.58 56.08C279.58 56.4 279.66 56.68 279.82 56.92C280.06 57.08 280.18 57.16 280.18 57.16C280.82 57.16 281.22 58.16 281.38 60.16C281.62 62.16 281.42 64.08 280.78 65.92C280.78 67.12 280.54 68.56 280.06 70.24C279.66 71.92 279.3 73.52 278.98 75.04C278.34 77.04 277.9 78.8 277.66 80.32C277.42 81.84 277.38 83.12 277.54 84.16C277.7 85.2 277.98 86.04 278.38 86.68C278.7 87.24 278.7 87.88 278.38 88.6C278.06 89.24 277.42 89.56 276.46 89.56Z" fill="#8AB5F6"/>
<path d="M321.844 91.24C321.524 91.56 320.644 91.68 319.204 91.6C317.844 91.52 316.564 91.2 315.364 90.64C315.204 90.4 314.924 90.16 314.524 89.92C314.124 89.6 313.724 89.24 313.324 88.84C313.004 88.44 312.724 88.08 312.484 87.76C312.324 87.52 311.924 87.08 311.284 86.44C310.644 85.72 310.004 85.04 309.364 84.4C308.724 83.76 308.284 83.32 308.044 83.08C307.724 82.44 307.084 81.64 306.124 80.68C305.164 79.64 304.244 78.68 303.364 77.8C302.804 77 302.244 76.32 301.684 75.76C301.124 75.2 300.644 74.8 300.244 74.56C299.844 74.24 299.524 74.08 299.284 74.08C299.284 74.08 299.124 74.6 298.804 75.64C298.564 76.6 298.204 77.84 297.724 79.36C297.324 80.8 296.884 82.28 296.404 83.8C296.004 85.24 295.684 86.4 295.444 87.28C294.884 88.4 294.404 89.16 294.004 89.56C293.604 89.96 293.084 90.16 292.444 90.16C291.564 90.16 290.764 89.76 290.044 88.96C289.404 88.16 289.084 87 289.084 85.48C288.764 84.36 289.164 81.92 290.284 78.16C291.404 74.4 293.124 69.6 295.444 63.76C295.764 62.56 296.164 61.32 296.644 60.04C297.124 58.68 297.524 57.56 297.844 56.68C298.644 54.04 299.484 51.6 300.364 49.36C301.324 47.04 302.324 44.72 303.364 42.4C304.404 40 305.484 37.44 306.604 34.72C307.324 33.28 307.844 32.24 308.164 31.6C308.484 30.88 308.844 30.16 309.244 29.44C309.644 28.64 310.244 27.48 311.044 25.96C312.804 22.68 314.204 20.12 315.244 18.28C316.284 16.44 317.084 15.08 317.644 14.2C318.204 13.32 318.684 12.68 319.084 12.28C319.484 11.88 319.964 11.6 320.524 11.44C321.084 11.28 321.644 11.28 322.204 11.44C322.764 11.52 323.244 11.8 323.644 12.28C324.284 12.92 324.644 13.6 324.724 14.32C324.884 14.96 324.724 15.84 324.244 16.96C323.844 18.08 323.044 19.64 321.844 21.64C321.204 23.08 320.684 24.12 320.284 24.76C319.884 25.4 319.484 26.04 319.084 26.68C318.684 27.32 318.044 28.44 317.164 30.04C317.004 30.52 316.764 31.04 316.444 31.6C316.124 32.16 315.764 32.44 315.364 32.44C315.364 32.68 315.244 33.16 315.004 33.88C314.764 34.6 314.484 35.28 314.164 35.92C313.924 36.8 313.524 37.76 312.964 38.8C312.484 39.76 312.124 40.56 311.884 41.2C311.484 42.16 310.844 43.48 309.964 45.16C309.164 46.84 308.364 48.48 307.564 50.08C306.844 51.6 306.404 52.8 306.244 53.68C306.244 54 306.484 53.96 306.964 53.56C307.444 53.16 307.964 52.8 308.524 52.48C309.724 51.52 311.084 50.56 312.604 49.6C314.204 48.56 315.724 47.68 317.164 46.96C318.684 46.16 319.924 45.68 320.884 45.52C322.084 45.2 323.044 45.04 323.764 45.04C324.564 45.04 325.364 45.2 326.164 45.52C326.804 45.84 327.324 46.28 327.724 46.84C328.204 47.4 328.604 48.04 328.924 48.76C329.324 49.48 329.604 50.36 329.764 51.4C329.764 52.12 329.484 53.32 328.924 55C328.364 56.68 327.684 58.32 326.884 59.92C326.084 61.44 325.284 62.52 324.484 63.16C323.924 63.4 323.484 63.64 323.164 63.88C322.844 64.12 322.684 64.24 322.684 64.24C322.684 64.56 322.524 64.96 322.204 65.44C321.964 65.92 321.524 66.32 320.884 66.64C320.564 66.96 320.204 67.36 319.804 67.84C319.404 68.32 319.204 68.68 319.204 68.92C319.204 68.92 319.204 69.04 319.204 69.28C319.204 69.44 319.204 69.52 319.204 69.52C318.884 69.52 318.404 69.76 317.764 70.24C317.204 70.72 316.484 71.28 315.604 71.92C314.724 72.8 314.084 73.28 313.684 73.36C313.364 73.44 312.884 73.6 312.244 73.84C312.084 74 311.884 74.12 311.644 74.2C311.484 74.28 311.284 74.36 311.044 74.44C310.884 74.52 310.724 74.6 310.564 74.68C310.484 74.76 310.444 74.88 310.444 75.04C310.444 75.36 310.804 76.04 311.524 77.08C312.324 78.04 313.244 79.12 314.284 80.32C315.404 81.52 316.444 82.64 317.404 83.68C318.444 84.64 319.204 85.28 319.684 85.6C320.484 85.92 321.044 86.48 321.364 87.28C321.764 88 322.004 88.76 322.084 89.56C322.164 90.28 322.084 90.84 321.844 91.24ZM307.444 70C307.844 69.68 308.684 69.04 309.964 68.08C311.244 67.04 312.644 65.92 314.164 64.72C315.684 63.44 317.044 62.24 318.244 61.12C319.524 59.92 320.404 59.04 320.884 58.48C321.444 57.92 322.004 56.96 322.564 55.6C323.124 54.24 323.204 53.16 322.804 52.36C322.724 52.04 322.004 52.2 320.644 52.84C319.284 53.48 317.724 54.24 315.964 55.12C314.604 55.92 313.004 56.96 311.164 58.24C309.404 59.52 307.724 60.88 306.124 62.32C304.604 63.76 303.444 65.16 302.644 66.52C302.484 67.08 302.644 67.72 303.124 68.44C303.604 69.16 304.244 69.72 305.044 70.12C305.844 70.44 306.644 70.4 307.444 70Z" fill="#8AB5F6"/>
<g clip-path="url(#clip0_102_4)">
<path d="M126.497 31.0538C123.829 27.361 121.156 23.0831 118.316 18.5497C115.388 13.8694 112.359 9.02666 108.993 4.25785C108.957 4.20363 108.905 4.16415 108.861 4.10971C108.795 4.02425 108.721 3.93857 108.647 3.86048C108.581 3.79021 108.507 3.7273 108.433 3.67199C108.358 3.60908 108.277 3.54596 108.195 3.49043C108.113 3.4349 108.03 3.38696 107.94 3.34639C107.851 3.29824 107.768 3.2503 107.671 3.2171C107.581 3.17654 107.483 3.15094 107.392 3.12555C107.302 3.10017 107.204 3.06697 107.113 3.04918C107.007 3.03095 106.901 3.02032 106.788 3.00946C106.719 3.0075 106.659 2.98299 106.591 2.98103C98.1346 2.73863 72.0274 2.84118 51.0567 2.91623C41.0955 2.95739 32.464 2.99107 27.6174 2.9737C26.3515 2.34483 24.7697 2.66416 23.8704 3.82355C22.3167 5.81509 20.8184 7.72465 19.3597 9.58216C13.1699 17.4655 7.816 24.2787 2.40736 32.4731C1.7642 33.4423 1.76777 34.6428 2.28735 35.5997C1.7704 36.6713 1.89976 37.9894 2.7386 38.9403C22.2944 61.1911 40.8842 81.097 61.2426 101.585C61.7815 102.133 62.4799 102.419 63.1925 102.47C63.5231 102.601 63.8705 102.671 64.2121 102.681C65.0471 102.705 65.8919 102.387 66.511 101.729C86.5708 80.4237 106.45 58.5208 125.6 36.6273C126.056 36.1009 126.294 35.462 126.335 34.8174C127.224 33.7793 127.329 32.2324 126.496 31.069L126.497 31.0538ZM58.2902 9.7788C58.5101 9.5268 58.67 9.25028 58.7923 8.95749C63.4804 8.93993 68.2823 8.92562 72.9625 8.91543C74.0777 11.0898 80.2353 23.6803 83.3481 30.6451C69.7293 30.5358 55.0672 30.5106 42.1112 30.6026C47.0897 23.3684 52.5171 16.3749 58.2902 9.7788ZM84.3292 36.7054C79.4997 55.4387 72.8593 73.7401 64.5635 91.2192C55.8204 73.4113 47.7066 55.1199 40.379 36.6992C53.7534 36.5887 69.4266 36.5898 84.3292 36.7054ZM90.5877 36.7633C100.211 36.8644 109.308 37.0112 116.998 37.2012C103.059 53.0523 88.7628 68.8855 74.3065 84.4786C81.0164 69.0509 86.4661 53.0629 90.5877 36.7633ZM119.192 31.1787C111.821 30.9826 101.478 30.8153 89.9942 30.6988C87.9116 25.6933 82.4612 14.407 79.7474 8.89719C90.3688 8.88256 99.7204 8.9075 104.891 9.01014C107.824 13.2423 110.541 17.5747 113.171 21.7678C115.234 25.071 117.217 28.2351 119.192 31.1787ZM24.1448 13.3356C25.233 11.9461 26.3605 10.5122 27.5041 9.04828C32.3281 9.05741 40.9748 9.02416 50.9661 8.99147C45.4531 15.5267 40.2643 22.413 35.5103 29.5018C35.3359 29.7551 35.2216 30.0329 35.1374 30.3192C34.9693 30.3523 34.8086 30.3933 34.6397 30.4569C34.4783 30.5206 34.3317 30.6 34.1924 30.6871C24.2518 30.8049 15.8584 31.0125 10.5388 31.3311C14.8166 25.2163 19.2011 19.6212 24.1291 13.3504L24.1448 13.3356ZM9.5206 37.4329C14.0577 37.1147 22.8692 36.8962 33.8739 36.7634C40.6373 53.9297 48.0949 70.9942 56.1028 87.6795C40.1908 71.3602 25.1353 55.1111 9.52819 37.4331L9.5206 37.4329Z" fill="black"/>
<path d="M58.2905 9.77787C58.5105 9.52587 58.6704 9.24935 58.7927 8.95656C63.4807 8.939 68.2826 8.92469 72.9629 8.9145C74.0781 11.0889 80.2357 23.6794 83.3485 30.6441C69.7297 30.5349 55.0676 30.5097 42.1116 30.6017C47.0901 23.3674 52.5175 16.374 58.2905 9.77787ZM84.3295 36.7045C79.5001 55.4377 72.8597 73.7392 64.5638 91.2183C55.8208 73.4103 47.707 55.119 40.3794 36.6983C53.7538 36.5878 69.427 36.5888 84.3295 36.7045ZM90.5881 36.7624C100.211 36.8634 109.308 37.0103 116.999 37.2003C103.059 53.0513 88.7632 68.8846 74.3069 84.4777C81.0168 69.05 86.4665 53.062 90.5881 36.7624ZM119.192 31.1778C111.821 30.9817 101.478 30.8143 89.9946 30.6979C87.912 25.6924 82.4616 14.4061 79.7478 8.89626C90.3692 8.88163 99.7208 8.90657 104.892 9.00921C107.824 13.2414 110.542 17.5738 113.172 21.7669C115.235 25.0701 117.218 28.2342 119.192 31.1778ZM24.1451 13.3347C25.2334 11.9452 26.3609 10.5112 27.5045 9.04736C32.3285 9.05648 40.9752 9.02323 50.9665 8.99054C45.4535 15.5257 40.2647 22.4121 35.5107 29.5008C35.3363 29.7541 35.222 30.032 35.1378 30.3182C34.9697 30.3514 34.809 30.3924 34.6401 30.4559C34.4787 30.5197 34.3321 30.599 34.1928 30.6862C24.2522 30.8039 15.8588 31.0116 10.5392 31.3301C14.817 25.2154 19.2015 19.6203 24.1295 13.3494L24.1451 13.3347ZM9.52098 37.432C14.0581 37.1138 22.8696 36.8953 33.8743 36.7625C40.6376 53.9287 48.0953 70.9933 56.1032 87.6785C40.1912 71.3593 25.1357 55.1102 9.52858 37.4322L9.52098 37.432Z" fill="#8AB5F7"/>
</g>
<defs>
<clipPath id="clip0_102_4">
<rect width="125.068" height="100.873" fill="white" transform="translate(2.89026) rotate(1.64189)"/>
</clipPath>
</defs>
</svg>
